<mxfile host="app.diagrams.net" agent="Mozilla/5.0 (Windows NT 10.0; Win64; x64) AppleWebKit/537.36 (KHTML, like Gecko) Chrome/136.0.0.0 Safari/537.36" version="27.0.5">
  <diagram name="Página-1" id="V-Mngq2yt3U_ges3Ur-B">
    <mxGraphModel dx="2411" dy="826" grid="1" gridSize="10" guides="1" tooltips="1" connect="1" arrows="1" fold="1" page="1" pageScale="1" pageWidth="827" pageHeight="1169" math="0" shadow="0">
      <root>
        <mxCell id="0" />
        <mxCell id="1" parent="0" />
        <mxCell id="f_5S6bqZnzwv96T5kUB0-47" style="edgeStyle=orthogonalEdgeStyle;rounded=0;orthogonalLoop=1;jettySize=auto;html=1;exitX=0.5;exitY=0.5;exitDx=0;exitDy=0;exitPerimeter=0;entryX=0;entryY=0.5;entryDx=0;entryDy=0;" edge="1" parent="1" source="f_5S6bqZnzwv96T5kUB0-5" target="f_5S6bqZnzwv96T5kUB0-6">
          <mxGeometry relative="1" as="geometry" />
        </mxCell>
        <mxCell id="f_5S6bqZnzwv96T5kUB0-5" value="Gerente" style="shape=umlActor;verticalLabelPosition=bottom;verticalAlign=top;html=1;outlineConnect=0;" vertex="1" parent="1">
          <mxGeometry x="-349" y="455" width="30" height="60" as="geometry" />
        </mxCell>
        <mxCell id="f_5S6bqZnzwv96T5kUB0-6" value="Manter cadastro de funcionário" style="ellipse;whiteSpace=wrap;html=1;" vertex="1" parent="1">
          <mxGeometry x="-229" y="460.5" width="90" height="49" as="geometry" />
        </mxCell>
        <mxCell id="f_5S6bqZnzwv96T5kUB0-8" value="Manter cadastro de livros" style="ellipse;whiteSpace=wrap;html=1;" vertex="1" parent="1">
          <mxGeometry x="-669" y="544" width="100" height="40" as="geometry" />
        </mxCell>
        <mxCell id="f_5S6bqZnzwv96T5kUB0-10" value="Entrar no sistema" style="ellipse;whiteSpace=wrap;html=1;" vertex="1" parent="1">
          <mxGeometry x="-689" y="354" width="90" height="40" as="geometry" />
        </mxCell>
        <mxCell id="f_5S6bqZnzwv96T5kUB0-12" value="Manter cadastro de gêneros" style="ellipse;whiteSpace=wrap;html=1;" vertex="1" parent="1">
          <mxGeometry x="-669" y="490" width="100" height="40" as="geometry" />
        </mxCell>
        <mxCell id="f_5S6bqZnzwv96T5kUB0-56" style="edgeStyle=orthogonalEdgeStyle;rounded=0;orthogonalLoop=1;jettySize=auto;html=1;exitX=0.5;exitY=0.5;exitDx=0;exitDy=0;exitPerimeter=0;entryX=0;entryY=0.5;entryDx=0;entryDy=0;" edge="1" parent="1" source="f_5S6bqZnzwv96T5kUB0-16" target="f_5S6bqZnzwv96T5kUB0-17">
          <mxGeometry relative="1" as="geometry" />
        </mxCell>
        <mxCell id="f_5S6bqZnzwv96T5kUB0-57" style="edgeStyle=orthogonalEdgeStyle;rounded=0;orthogonalLoop=1;jettySize=auto;html=1;exitX=0.5;exitY=0.5;exitDx=0;exitDy=0;exitPerimeter=0;entryX=0;entryY=0.5;entryDx=0;entryDy=0;" edge="1" parent="1">
          <mxGeometry relative="1" as="geometry">
            <mxPoint x="-333" y="174" as="sourcePoint" />
            <mxPoint x="-237.99999999999955" y="121.5" as="targetPoint" />
            <Array as="points">
              <mxPoint x="-289" y="174" />
              <mxPoint x="-289" y="121" />
            </Array>
          </mxGeometry>
        </mxCell>
        <mxCell id="f_5S6bqZnzwv96T5kUB0-58" style="edgeStyle=orthogonalEdgeStyle;rounded=0;orthogonalLoop=1;jettySize=auto;html=1;exitX=0.5;exitY=0.5;exitDx=0;exitDy=0;exitPerimeter=0;entryX=0;entryY=0.5;entryDx=0;entryDy=0;" edge="1" parent="1" source="f_5S6bqZnzwv96T5kUB0-16" target="f_5S6bqZnzwv96T5kUB0-20">
          <mxGeometry relative="1" as="geometry">
            <Array as="points">
              <mxPoint x="-289" y="174" />
              <mxPoint x="-289" y="224" />
            </Array>
          </mxGeometry>
        </mxCell>
        <mxCell id="f_5S6bqZnzwv96T5kUB0-16" value="Cliente" style="shape=umlActor;verticalLabelPosition=bottom;verticalAlign=top;html=1;outlineConnect=0;" vertex="1" parent="1">
          <mxGeometry x="-349" y="144" width="30" height="60" as="geometry" />
        </mxCell>
        <mxCell id="f_5S6bqZnzwv96T5kUB0-17" value="&lt;div&gt;Realizar cadastro no sistema&lt;/div&gt;" style="ellipse;whiteSpace=wrap;html=1;" vertex="1" parent="1">
          <mxGeometry x="-239" y="154" width="90" height="40" as="geometry" />
        </mxCell>
        <mxCell id="f_5S6bqZnzwv96T5kUB0-19" value="Cunsultar exemplares e&amp;nbsp; disponibilidade" style="ellipse;whiteSpace=wrap;html=1;" vertex="1" parent="1">
          <mxGeometry x="-694" y="297" width="100" height="54" as="geometry" />
        </mxCell>
        <mxCell id="f_5S6bqZnzwv96T5kUB0-20" value="Solicitar aumento de prazo do empréstimo" style="ellipse;whiteSpace=wrap;html=1;" vertex="1" parent="1">
          <mxGeometry x="-255.5" y="204" width="123" height="40" as="geometry" />
        </mxCell>
        <mxCell id="f_5S6bqZnzwv96T5kUB0-22" value="Consultar empréstimos pessoais" style="ellipse;whiteSpace=wrap;html=1;" vertex="1" parent="1">
          <mxGeometry x="-239" y="99" width="90" height="45" as="geometry" />
        </mxCell>
        <mxCell id="f_5S6bqZnzwv96T5kUB0-53" style="edgeStyle=orthogonalEdgeStyle;rounded=0;orthogonalLoop=1;jettySize=auto;html=1;exitX=0.5;exitY=0.5;exitDx=0;exitDy=0;exitPerimeter=0;entryX=0;entryY=0.5;entryDx=0;entryDy=0;" edge="1" parent="1" source="f_5S6bqZnzwv96T5kUB0-23" target="f_5S6bqZnzwv96T5kUB0-25">
          <mxGeometry relative="1" as="geometry" />
        </mxCell>
        <mxCell id="f_5S6bqZnzwv96T5kUB0-54" style="edgeStyle=orthogonalEdgeStyle;rounded=0;orthogonalLoop=1;jettySize=auto;html=1;exitX=0.5;exitY=0.5;exitDx=0;exitDy=0;exitPerimeter=0;entryX=0;entryY=0.5;entryDx=0;entryDy=0;" edge="1" parent="1" source="f_5S6bqZnzwv96T5kUB0-23" target="f_5S6bqZnzwv96T5kUB0-28">
          <mxGeometry relative="1" as="geometry" />
        </mxCell>
        <mxCell id="f_5S6bqZnzwv96T5kUB0-55" style="edgeStyle=orthogonalEdgeStyle;rounded=0;orthogonalLoop=1;jettySize=auto;html=1;exitX=0.5;exitY=0.5;exitDx=0;exitDy=0;exitPerimeter=0;entryX=0;entryY=0.5;entryDx=0;entryDy=0;" edge="1" parent="1" source="f_5S6bqZnzwv96T5kUB0-23" target="f_5S6bqZnzwv96T5kUB0-30">
          <mxGeometry relative="1" as="geometry" />
        </mxCell>
        <mxCell id="f_5S6bqZnzwv96T5kUB0-23" value="Bibliotecário" style="shape=umlActor;verticalLabelPosition=bottom;verticalAlign=top;html=1;outlineConnect=0;" vertex="1" parent="1">
          <mxGeometry x="-349" y="294" width="30" height="60" as="geometry" />
        </mxCell>
        <mxCell id="f_5S6bqZnzwv96T5kUB0-25" value="Manter cadastro de exemplares&amp;nbsp;" style="ellipse;whiteSpace=wrap;html=1;strokeColor=default;align=center;verticalAlign=middle;fontFamily=Helvetica;fontSize=12;fontColor=default;fillColor=default;" vertex="1" parent="1">
          <mxGeometry x="-228" y="304" width="90" height="40" as="geometry" />
        </mxCell>
        <mxCell id="f_5S6bqZnzwv96T5kUB0-28" value="Gerenciar prazos de devolução" style="ellipse;whiteSpace=wrap;html=1;strokeColor=default;align=center;verticalAlign=middle;fontFamily=Helvetica;fontSize=12;fontColor=default;fillColor=default;" vertex="1" parent="1">
          <mxGeometry x="-228" y="354" width="90" height="40" as="geometry" />
        </mxCell>
        <mxCell id="f_5S6bqZnzwv96T5kUB0-30" value="Gerenciar empréstimos de exemplares" style="ellipse;whiteSpace=wrap;html=1;strokeColor=default;align=center;verticalAlign=middle;fontFamily=Helvetica;fontSize=12;fontColor=default;fillColor=default;" vertex="1" parent="1">
          <mxGeometry x="-228" y="250" width="90" height="44" as="geometry" />
        </mxCell>
        <mxCell id="f_5S6bqZnzwv96T5kUB0-34" value="Sair do sistema" style="ellipse;whiteSpace=wrap;html=1;" vertex="1" parent="1">
          <mxGeometry x="-689" y="254" width="90" height="40" as="geometry" />
        </mxCell>
        <mxCell id="f_5S6bqZnzwv96T5kUB0-35" value="&lt;font style=&quot;font-size: 14px;&quot;&gt;&lt;b&gt;Diagramas de Casos de Uso&lt;/b&gt;&lt;/font&gt;" style="text;html=1;align=center;verticalAlign=middle;whiteSpace=wrap;rounded=0;" vertex="1" parent="1">
          <mxGeometry x="-568" y="60" width="260" height="30" as="geometry" />
        </mxCell>
        <mxCell id="f_5S6bqZnzwv96T5kUB0-40" style="edgeStyle=orthogonalEdgeStyle;rounded=0;orthogonalLoop=1;jettySize=auto;html=1;exitX=0.5;exitY=0.5;exitDx=0;exitDy=0;exitPerimeter=0;entryX=1;entryY=0.5;entryDx=0;entryDy=0;" edge="1" parent="1" source="f_5S6bqZnzwv96T5kUB0-36" target="f_5S6bqZnzwv96T5kUB0-34">
          <mxGeometry relative="1" as="geometry" />
        </mxCell>
        <mxCell id="f_5S6bqZnzwv96T5kUB0-41" style="edgeStyle=orthogonalEdgeStyle;rounded=0;orthogonalLoop=1;jettySize=auto;html=1;exitX=0.5;exitY=0.5;exitDx=0;exitDy=0;exitPerimeter=0;entryX=1;entryY=0.5;entryDx=0;entryDy=0;" edge="1" parent="1" source="f_5S6bqZnzwv96T5kUB0-36" target="f_5S6bqZnzwv96T5kUB0-10">
          <mxGeometry relative="1" as="geometry" />
        </mxCell>
        <mxCell id="f_5S6bqZnzwv96T5kUB0-42" style="edgeStyle=orthogonalEdgeStyle;rounded=0;orthogonalLoop=1;jettySize=auto;html=1;exitX=0.5;exitY=0.5;exitDx=0;exitDy=0;exitPerimeter=0;entryX=0.5;entryY=0.5;entryDx=0;entryDy=0;entryPerimeter=0;endArrow=block;endFill=0;" edge="1" parent="1" source="f_5S6bqZnzwv96T5kUB0-36" target="f_5S6bqZnzwv96T5kUB0-16">
          <mxGeometry relative="1" as="geometry">
            <mxPoint x="-389" y="174" as="targetPoint" />
            <Array as="points">
              <mxPoint x="-409" y="324" />
              <mxPoint x="-409" y="174" />
            </Array>
          </mxGeometry>
        </mxCell>
        <mxCell id="f_5S6bqZnzwv96T5kUB0-59" style="edgeStyle=orthogonalEdgeStyle;rounded=0;orthogonalLoop=1;jettySize=auto;html=1;exitX=0.5;exitY=0.5;exitDx=0;exitDy=0;exitPerimeter=0;entryX=1;entryY=0.5;entryDx=0;entryDy=0;" edge="1" parent="1" source="f_5S6bqZnzwv96T5kUB0-36" target="f_5S6bqZnzwv96T5kUB0-19">
          <mxGeometry relative="1" as="geometry" />
        </mxCell>
        <mxCell id="f_5S6bqZnzwv96T5kUB0-36" value="Usuário Logado" style="shape=umlActor;verticalLabelPosition=bottom;verticalAlign=top;html=1;outlineConnect=0;" vertex="1" parent="1">
          <mxGeometry x="-509" y="294" width="30" height="60" as="geometry" />
        </mxCell>
        <mxCell id="f_5S6bqZnzwv96T5kUB0-43" style="edgeStyle=orthogonalEdgeStyle;rounded=0;orthogonalLoop=1;jettySize=auto;html=1;exitX=0.5;exitY=0.5;exitDx=0;exitDy=0;exitPerimeter=0;entryX=0.5;entryY=0.5;entryDx=0;entryDy=0;entryPerimeter=0;endArrow=block;endFill=0;" edge="1" parent="1" source="f_5S6bqZnzwv96T5kUB0-36" target="f_5S6bqZnzwv96T5kUB0-23">
          <mxGeometry relative="1" as="geometry" />
        </mxCell>
        <mxCell id="f_5S6bqZnzwv96T5kUB0-44" style="edgeStyle=orthogonalEdgeStyle;rounded=0;orthogonalLoop=1;jettySize=auto;html=1;exitX=0.5;exitY=0.5;exitDx=0;exitDy=0;exitPerimeter=0;entryX=0.5;entryY=0.5;entryDx=0;entryDy=0;entryPerimeter=0;endArrow=block;endFill=0;" edge="1" parent="1" source="f_5S6bqZnzwv96T5kUB0-36" target="f_5S6bqZnzwv96T5kUB0-5">
          <mxGeometry relative="1" as="geometry">
            <Array as="points">
              <mxPoint x="-409" y="324" />
              <mxPoint x="-409" y="485" />
            </Array>
          </mxGeometry>
        </mxCell>
        <mxCell id="f_5S6bqZnzwv96T5kUB0-48" style="edgeStyle=orthogonalEdgeStyle;rounded=0;orthogonalLoop=1;jettySize=auto;html=1;exitX=0.5;exitY=0.5;exitDx=0;exitDy=0;exitPerimeter=0;entryX=1;entryY=0.5;entryDx=0;entryDy=0;" edge="1" parent="1" source="f_5S6bqZnzwv96T5kUB0-45" target="f_5S6bqZnzwv96T5kUB0-12">
          <mxGeometry relative="1" as="geometry" />
        </mxCell>
        <mxCell id="f_5S6bqZnzwv96T5kUB0-49" style="edgeStyle=orthogonalEdgeStyle;rounded=0;orthogonalLoop=1;jettySize=auto;html=1;exitX=0.5;exitY=0.5;exitDx=0;exitDy=0;exitPerimeter=0;" edge="1" parent="1" source="f_5S6bqZnzwv96T5kUB0-45" target="f_5S6bqZnzwv96T5kUB0-8">
          <mxGeometry relative="1" as="geometry" />
        </mxCell>
        <mxCell id="f_5S6bqZnzwv96T5kUB0-45" value="Funcionário" style="shape=umlActor;verticalLabelPosition=bottom;verticalAlign=top;html=1;outlineConnect=0;" vertex="1" parent="1">
          <mxGeometry x="-509" y="504" width="30" height="60" as="geometry" />
        </mxCell>
        <mxCell id="f_5S6bqZnzwv96T5kUB0-50" style="edgeStyle=orthogonalEdgeStyle;rounded=0;orthogonalLoop=1;jettySize=auto;html=1;exitX=0.5;exitY=0.5;exitDx=0;exitDy=0;exitPerimeter=0;entryX=0;entryY=1;entryDx=0;entryDy=0;entryPerimeter=0;endArrow=block;endFill=0;" edge="1" parent="1" source="f_5S6bqZnzwv96T5kUB0-45" target="f_5S6bqZnzwv96T5kUB0-23">
          <mxGeometry relative="1" as="geometry">
            <Array as="points">
              <mxPoint x="-399" y="534" />
              <mxPoint x="-399" y="354" />
            </Array>
          </mxGeometry>
        </mxCell>
        <mxCell id="f_5S6bqZnzwv96T5kUB0-51" style="edgeStyle=orthogonalEdgeStyle;rounded=0;orthogonalLoop=1;jettySize=auto;html=1;entryX=0;entryY=1;entryDx=0;entryDy=0;entryPerimeter=0;endArrow=block;endFill=0;" edge="1" parent="1">
          <mxGeometry relative="1" as="geometry">
            <mxPoint x="-494" y="534" as="sourcePoint" />
            <mxPoint x="-349" y="514" as="targetPoint" />
            <Array as="points">
              <mxPoint x="-399" y="534" />
              <mxPoint x="-399" y="514" />
            </Array>
          </mxGeometry>
        </mxCell>
      </root>
    </mxGraphModel>
  </diagram>
</mxfile>
